<svg width="20" height="20" viewBox="0 0 20 20" fill="none" xmlns="http://www.w3.org/2000/svg">
<path d="M7.08337 3.33334H5.00004C4.55801 3.33334 4.13409 3.50894 3.82153 3.8215C3.50897 4.13406 3.33337 4.55798 3.33337 5.00001V16.6667C3.33337 17.1087 3.50897 17.5326 3.82153 17.8452C4.13409 18.1577 4.55801 18.3333 5.00004 18.3333H15C15.4421 18.3333 15.866 18.1577 16.1786 17.8452C16.4911 17.5326 16.6667 17.1087 16.6667 16.6667V5.00001C16.6667 4.55798 16.4911 4.13406 16.1786 3.8215C15.866 3.50894 15.4421 3.33334 15 3.33334H12.9167" stroke="#81858C" stroke-width="1.5" stroke-linecap="round"/>
<path d="M6.66663 5.33334V3.75001C6.66663 3.6395 6.71052 3.53352 6.78866 3.45538C6.8668 3.37724 6.97279 3.33334 7.08329 3.33334C7.31329 3.33334 7.50329 3.14668 7.54329 2.92001C7.66663 2.21001 8.14496 0.833344 9.99996 0.833344C11.855 0.833344 12.3333 2.21001 12.4566 2.92001C12.4966 3.14668 12.6866 3.33334 12.9166 3.33334C13.0271 3.33334 13.1331 3.37724 13.2113 3.45538C13.2894 3.53352 13.3333 3.6395 13.3333 3.75001V5.33334C13.3333 5.46595 13.2806 5.59313 13.1868 5.6869C13.0931 5.78066 12.9659 5.83334 12.8333 5.83334H7.16663C7.03402 5.83334 6.90684 5.78066 6.81307 5.6869C6.7193 5.59313 6.66663 5.46595 6.66663 5.33334Z" stroke="#81858C" stroke-width="1.5" stroke-linecap="round"/>
</svg>
