<svg width="251" height="32" viewBox="0 0 251 32" fill="none" xmlns="http://www.w3.org/2000/svg">
<rect width="251" height="32" fill="#791285"/>
<path d="M12.346 8.94C13.1187 8.94 13.8407 9.016 14.512 9.168C15.1833 9.30733 15.766 9.548 16.26 9.89C16.754 10.232 17.1403 10.688 17.419 11.258C17.7103 11.8153 17.856 12.512 17.856 13.348C17.856 14.146 17.7103 14.8427 17.419 15.438C17.1403 16.0207 16.754 16.502 16.26 16.882C15.7787 17.262 15.2087 17.547 14.55 17.737C13.8913 17.9143 13.182 18.003 12.422 18.003H10.541V23H7.729V8.94H12.346ZM12.232 15.78C14.1447 15.78 15.101 14.9693 15.101 13.348C15.101 12.5247 14.8477 11.9547 14.341 11.638C13.847 11.3213 13.1123 11.163 12.137 11.163H10.541V15.78H12.232ZM25.7979 23.266C24.9492 23.266 24.1829 23.1457 23.4989 22.905C22.8275 22.6517 22.2512 22.259 21.7699 21.727C21.3012 21.195 20.9402 20.511 20.6869 19.675C20.4462 18.839 20.3259 17.8383 20.3259 16.673V8.94H23.1379V16.92C23.1379 17.6547 23.1949 18.2753 23.3089 18.782C23.4355 19.276 23.6129 19.675 23.8409 19.979C24.0689 20.283 24.3475 20.5047 24.6769 20.644C25.0062 20.7707 25.3799 20.834 25.7979 20.834C26.2159 20.834 26.5895 20.7707 26.9189 20.644C27.2609 20.5047 27.5522 20.283 27.7929 19.979C28.0335 19.675 28.2172 19.276 28.3439 18.782C28.4705 18.2753 28.5339 17.6547 28.5339 16.92V8.94H31.2319V16.673C31.2319 17.8383 31.1115 18.839 30.8709 19.675C30.6302 20.511 30.2755 21.195 29.8069 21.727C29.3382 22.259 28.7682 22.6517 28.0969 22.905C27.4255 23.1457 26.6592 23.266 25.7979 23.266ZM39.3837 17.68H37.4267V23H34.6147V8.94H39.5167C40.2641 8.94 40.9544 9.00967 41.5877 9.149C42.2337 9.28833 42.7911 9.52267 43.2597 9.852C43.7411 10.1813 44.1147 10.6183 44.3807 11.163C44.6594 11.7077 44.7987 12.3853 44.7987 13.196C44.7987 14.2727 44.5517 15.1403 44.0577 15.799C43.5764 16.445 42.9304 16.9263 42.1197 17.243L45.4067 23H42.2717L39.3837 17.68ZM39.2507 15.457C40.1627 15.457 40.8531 15.2733 41.3217 14.906C41.8031 14.526 42.0437 13.956 42.0437 13.196C42.0437 12.436 41.8031 11.9103 41.3217 11.619C40.8531 11.315 40.1627 11.163 39.2507 11.163H37.4267V15.457H39.2507ZM52.1829 8.94C52.9556 8.94 53.6776 9.016 54.3489 9.168C55.0202 9.30733 55.6029 9.548 56.0969 9.89C56.5909 10.232 56.9772 10.688 57.2559 11.258C57.5472 11.8153 57.6929 12.512 57.6929 13.348C57.6929 14.146 57.5472 14.8427 57.2559 15.438C56.9772 16.0207 56.5909 16.502 56.0969 16.882C55.6156 17.262 55.0456 17.547 54.3869 17.737C53.7282 17.9143 53.0189 18.003 52.2589 18.003H50.3779V23H47.5659V8.94H52.1829ZM52.0689 15.78C53.9816 15.78 54.9379 14.9693 54.9379 13.348C54.9379 12.5247 54.6846 11.9547 54.1779 11.638C53.6839 11.3213 52.9492 11.163 51.9739 11.163H50.3779V15.78H52.0689ZM63.0508 8.94V20.644H68.7508V23H60.2388V8.94H63.0508ZM79.8306 8.94V11.277H74.0166V14.526H78.9566V16.882H74.0166V20.644H80.0396V23H71.2046V8.94H79.8306ZM91.9677 17.68H90.0107V23H87.1987V8.94H92.1007C92.8481 8.94 93.5384 9.00967 94.1717 9.149C94.8177 9.28833 95.3751 9.52267 95.8437 9.852C96.3251 10.1813 96.6987 10.6183 96.9647 11.163C97.2434 11.7077 97.3827 12.3853 97.3827 13.196C97.3827 14.2727 97.1357 15.1403 96.6417 15.799C96.1604 16.445 95.5144 16.9263 94.7037 17.243L97.9907 23H94.8557L91.9677 17.68ZM91.8347 15.457C92.7467 15.457 93.4371 15.2733 93.9057 14.906C94.3871 14.526 94.6277 13.956 94.6277 13.196C94.6277 12.436 94.3871 11.9103 93.9057 11.619C93.4371 11.315 92.7467 11.163 91.8347 11.163H90.0107V15.457H91.8347ZM108.776 8.94V11.277H102.962V14.526H107.902V16.882H102.962V20.644H108.985V23H100.15V8.94H108.776ZM113.872 19.39L112.884 23H110.034L114.537 8.94H117.843L122.365 23H119.42L118.432 19.39H113.872ZM117.406 15.666C117.191 14.9313 116.982 14.1713 116.779 13.386C116.589 12.6007 116.387 11.828 116.171 11.068H116.095C115.918 11.8407 115.728 12.6197 115.525 13.405C115.323 14.1777 115.114 14.9313 114.898 15.666L114.48 17.205H117.824L117.406 15.666ZM127.868 8.94C128.945 8.94 129.908 9.07933 130.756 9.358C131.618 9.63667 132.346 10.0673 132.941 10.65C133.549 11.22 134.012 11.942 134.328 12.816C134.658 13.69 134.822 14.7223 134.822 15.913C134.822 17.091 134.658 18.1233 134.328 19.01C134.012 19.8967 133.556 20.6377 132.96 21.233C132.378 21.8157 131.668 22.259 130.832 22.563C129.996 22.8543 129.059 23 128.02 23H124.011V8.94H127.868ZM127.697 20.739C128.356 20.739 128.945 20.6503 129.464 20.473C129.996 20.283 130.446 19.998 130.813 19.618C131.181 19.2253 131.459 18.725 131.649 18.117C131.852 17.4963 131.953 16.7617 131.953 15.913C131.953 15.0517 131.852 14.3233 131.649 13.728C131.459 13.12 131.181 12.6323 130.813 12.265C130.446 11.885 129.996 11.6127 129.464 11.448C128.945 11.2707 128.356 11.182 127.697 11.182H126.823V20.739H127.697ZM140.387 8.94V23H137.575V8.94H140.387ZM146.715 8.94L150.8 16.426L152.206 19.466H152.301C152.225 18.7313 152.143 17.927 152.054 17.053C151.978 16.179 151.94 15.343 151.94 14.545V8.94H154.6V23H151.75L147.684 15.476L146.259 12.455H146.164C146.228 13.215 146.297 14.0193 146.373 14.868C146.462 15.7167 146.506 16.5463 146.506 17.357V23H143.846V8.94H146.715ZM164.12 23.266C163.157 23.266 162.264 23.1077 161.441 22.791C160.617 22.4743 159.902 22.012 159.294 21.404C158.698 20.796 158.23 20.0423 157.888 19.143C157.546 18.2437 157.375 17.205 157.375 16.027C157.375 14.8617 157.552 13.8293 157.907 12.93C158.261 12.018 158.743 11.2453 159.351 10.612C159.959 9.97867 160.674 9.49733 161.498 9.168C162.321 8.83867 163.195 8.674 164.12 8.674C165.133 8.674 165.994 8.85767 166.704 9.225C167.426 9.59233 168.015 10.0103 168.471 10.479L166.97 12.265C166.628 11.9357 166.241 11.657 165.811 11.429C165.393 11.201 164.861 11.087 164.215 11.087C163.632 11.087 163.094 11.201 162.6 11.429C162.118 11.6443 161.7 11.961 161.346 12.379C161.004 12.797 160.731 13.3037 160.529 13.899C160.339 14.4943 160.244 15.172 160.244 15.932C160.244 17.4647 160.592 18.668 161.289 19.542C161.985 20.4033 163.024 20.834 164.405 20.834C164.747 20.834 165.076 20.7897 165.393 20.701C165.709 20.6123 165.969 20.4793 166.172 20.302V17.528H163.683V15.229H168.68V21.575C168.198 22.0437 167.565 22.4427 166.78 22.772C165.994 23.1013 165.108 23.266 164.12 23.266ZM177.435 23.266C176.548 23.266 175.712 23.1077 174.927 22.791C174.141 22.4743 173.457 22.012 172.875 21.404C172.292 20.796 171.83 20.0423 171.488 19.143C171.158 18.2437 170.994 17.205 170.994 16.027C170.994 14.8617 171.165 13.8293 171.507 12.93C171.861 12.018 172.336 11.2453 172.932 10.612C173.527 9.97867 174.217 9.49733 175.003 9.168C175.801 8.83867 176.643 8.674 177.53 8.674C178.442 8.674 179.24 8.85767 179.924 9.225C180.62 9.57967 181.197 9.99767 181.653 10.479L180.171 12.265C179.816 11.923 179.43 11.6443 179.012 11.429C178.594 11.201 178.119 11.087 177.587 11.087C177.055 11.087 176.561 11.201 176.105 11.429C175.649 11.6443 175.256 11.961 174.927 12.379C174.597 12.797 174.338 13.3037 174.148 13.899C173.958 14.4943 173.863 15.172 173.863 15.932C173.863 16.692 173.945 17.376 174.11 17.984C174.287 18.592 174.534 19.1113 174.851 19.542C175.18 19.96 175.566 20.283 176.01 20.511C176.466 20.7263 176.972 20.834 177.53 20.834C178.138 20.834 178.676 20.7073 179.145 20.454C179.626 20.188 180.057 19.8523 180.437 19.447L181.919 21.195C180.766 22.5757 179.271 23.266 177.435 23.266ZM192.81 8.94V11.277H186.996V14.526H191.936V16.882H186.996V20.644H193.019V23H184.184V8.94H192.81ZM198.743 8.94L202.828 16.426L204.234 19.466H204.329C204.253 18.7313 204.17 17.927 204.082 17.053C204.006 16.179 203.968 15.343 203.968 14.545V8.94H206.628V23H203.778L199.712 15.476L198.287 12.455H198.192C198.255 13.215 198.325 14.0193 198.401 14.868C198.489 15.7167 198.534 16.5463 198.534 17.357V23H195.874V8.94H198.743ZM208.946 11.277V8.94H219.7V11.277H215.71V23H212.898V11.277H208.946ZM230.606 8.94V11.277H224.792V14.526H229.732V16.882H224.792V20.644H230.815V23H221.98V8.94H230.606ZM238.438 17.68H236.481V23H233.669V8.94H238.571C239.319 8.94 240.009 9.00967 240.642 9.149C241.288 9.28833 241.846 9.52267 242.314 9.852C242.796 10.1813 243.169 10.6183 243.435 11.163C243.714 11.7077 243.853 12.3853 243.853 13.196C243.853 14.2727 243.606 15.1403 243.112 15.799C242.631 16.445 241.985 16.9263 241.174 17.243L244.461 23H241.326L238.438 17.68ZM238.305 15.457C239.217 15.457 239.908 15.2733 240.376 14.906C240.858 14.526 241.098 13.956 241.098 13.196C241.098 12.436 240.858 11.9103 240.376 11.619C239.908 11.315 239.217 11.163 238.305 11.163H236.481V15.457H238.305Z" fill="white"/>
</svg>
