<?xml version="1.0" encoding="UTF-8"?>
<svg id="_레이어_2" data-name="레이어 2" xmlns="http://www.w3.org/2000/svg" viewBox="0 0 453.54 234.84">
  <defs>
    <style>
      .cls-1 {
        fill: #fff;
      }
    </style>
  </defs>
  <g id="_레이어_1-2" data-name="레이어 1">
    <g>
      <path class="cls-1" d="M449.55,0H4.01C1.8,0,0,1.79,0,4.01V230.83c0,2.2,1.8,4.01,4.01,4.01H449.55c2.21,0,3.99-1.8,3.99-4.01V4.01c0-2.22-1.78-4.01-3.99-4.01ZM8.01,226.81V8.03H445.53V226.81H8.01Z"/>
      <path class="cls-1" d="M55.55,163.39c-.09-.25-.19-.4-.26-.46-.07-.05-.26-.06-.55-.06h-4.75c-.35,0-.54,.01-.59,.06-.06,.05-.13,.21-.24,.46l-14.89,36.1c-.21,.47,0,.7,.61,.7h4.69c.23,0,.4-.01,.51-.06,.09-.06,.2-.21,.27-.43l3.66-8.91h16.64l3.68,8.91c.1,.22,.21,.38,.31,.43,.1,.05,.27,.06,.51,.06h4.7c.58,0,.77-.22,.61-.7l-14.91-36.1Zm-9.44,22.18l6.22-15.26,6.16,15.26h-12.38Z"/>
      <path class="cls-1" d="M104.64,171.32c1.15-1.25,2.53-2.22,4.18-2.92,1.64-.68,3.54-1.04,5.65-1.04,2.76,0,5.41,.38,7.97,1.13,.4,.14,.68,.21,.86,.21,.17,0,.27-.27,.27-.79l.08-3.67c.04-.34,.01-.58-.03-.71-.08-.16-.31-.28-.67-.38-1.19-.36-2.52-.61-3.97-.76-1.47-.15-2.97-.23-4.5-.23-2.93,0-5.57,.47-7.94,1.42-2.37,.94-4.37,2.26-6.06,3.96-1.65,1.7-2.93,3.75-3.84,6.12-.89,2.37-1.35,5.01-1.35,7.87s.46,5.55,1.39,7.92c.91,2.38,2.2,4.41,3.87,6.1,1.67,1.72,3.69,3.02,6.05,3.95,2.37,.93,5,1.39,7.9,1.39,1.84,0,3.45-.12,4.84-.35,1.4-.24,2.59-.46,3.58-.73,.38-.1,.6-.24,.68-.4,.08-.17,.1-.44,.07-.79l-.19-3.5c0-.25-.08-.41-.21-.47-.13-.05-.42-.01-.86,.17-1.07,.35-2.21,.6-3.45,.74-1.25,.16-2.75,.22-4.52,.22-1.97,0-3.76-.35-5.39-1.07-1.62-.72-3-1.73-4.17-3-1.18-1.26-2.1-2.76-2.75-4.5-.65-1.74-.95-3.63-.95-5.67s.28-3.98,.88-5.73c.59-1.72,1.46-3.21,2.6-4.47Z"/>
      <path class="cls-1" d="M169.34,163.39c-.09-.25-.19-.4-.25-.46-.07-.05-.27-.06-.57-.06h-4.75c-.33,0-.53,.01-.59,.06-.05,.05-.12,.21-.22,.46l-14.92,36.1c-.19,.47,0,.7,.63,.7h4.7c.24,0,.4-.01,.51-.06,.11-.06,.19-.21,.26-.43l3.68-8.91h16.64l3.66,8.91c.11,.22,.21,.38,.31,.43,.11,.05,.27,.06,.5,.06h4.71c.58,0,.79-.22,.61-.7l-14.91-36.1Zm-9.44,22.18l6.23-15.26,6.18,15.26h-12.41Z"/>
      <path class="cls-1" d="M235.09,168.3c-3.21-3.64-8.15-5.43-14.79-5.43h-8.69c-.65,0-1.04,.05-1.15,.16-.12,.11-.17,.49-.17,1.12v34.9c0,.5,.05,.81,.17,.93,.12,.14,.48,.2,1.05,.2h6.23c1.38,0,2.81-.08,4.23-.27,1.43-.19,2.82-.45,4.13-.79,1.33-.34,2.58-.79,3.72-1.32,1.15-.53,2.19-1.14,3.12-1.87,2.04-1.59,3.6-3.64,4.71-6.14,1.11-2.5,1.66-5.3,1.66-8.38s-.35-5.49-1.05-7.59c-.7-2.09-1.77-3.94-3.2-5.52Zm-2.87,19.23c-.85,1.76-2.02,3.21-3.55,4.32-1.33,1.08-2.86,1.85-4.58,2.32-1.73,.48-3.62,.72-5.57,.72h-2.3v-26.78h3.97c4.83,0,8.33,1.31,10.52,3.9,.95,1.1,1.65,2.41,2.1,3.95,.45,1.54,.66,3.29,.66,5.27,0,2.44-.42,4.54-1.25,6.31Z"/>
      <path class="cls-1" d="M289.08,194.89h-14.46v-11.3h13.18c.51,0,.77-.27,.77-.84v-3.71c0-.51-.26-.79-.77-.79h-13.18v-10.1h13.84c.31,0,.51-.06,.63-.17,.09-.12,.14-.34,.14-.66v-3.67c0-.3-.03-.51-.1-.62-.07-.11-.29-.16-.67-.16h-18.11c-.66,0-1.02,.05-1.15,.16-.12,.11-.18,.5-.18,1.17v34.61c0,.73,.07,1.13,.2,1.26,.14,.12,.54,.18,1.23,.18h18.64c.47,0,.7-.27,.7-.81v-3.7c0-.55-.23-.84-.7-.84Z"/>
      <path class="cls-1" d="M358.05,162.87h-6.08c-.25,0-.39,.02-.44,.12-.06,.08-.14,.22-.24,.47l-12.09,29.12-12.09-29.12c-.1-.25-.19-.39-.24-.47-.05-.09-.2-.12-.44-.12h-6.07c-.55,0-.87,.05-.99,.16-.08,.11-.13,.4-.13,.86v35.75c0,.36,.2,.54,.6,.54h4.75c.28,0,.45-.05,.51-.12,.08-.08,.1-.22,.1-.42v-26.9l11.09,26.81c.07,.15,.13,.26,.21,.29,.1,.04,.31,.05,.65,.05h4.08c.34,0,.55-.01,.63-.05,.08-.04,.17-.14,.24-.29l11.08-26.81v26.9c0,.2,.04,.34,.1,.42,.07,.07,.25,.12,.52,.12h4.74c.42,0,.63-.18,.63-.54v-35.75c0-.46-.05-.75-.15-.86-.1-.11-.44-.16-.97-.16Z"/>
      <path class="cls-1" d="M418.48,162.87h-5.15c-.33,0-.56,.08-.66,.28l-10.15,15.91-10.11-15.91c-.11-.21-.32-.28-.66-.28h-5.15c-.56,0-.72,.21-.47,.63l13.47,21.13v14.96c0,.39,.21,.59,.61,.59h4.55c.4,0,.61-.2,.61-.59v-14.91l13.57-21.18c.24-.42,.09-.63-.47-.63Z"/>
      <path class="cls-1" d="M51.5,101.09h8.68c6.13,0,11.5-.89,16.16-2.65,4.63-1.77,8.5-4.24,11.61-7.42,3.11-3.17,5.44-6.94,7.02-11.31,1.58-4.37,2.37-9.13,2.37-14.28s-.8-9.51-2.41-13.43c-1.59-3.91-3.94-7.2-7.02-9.86-3.09-2.69-6.88-4.72-11.42-6.09-4.51-1.39-9.71-2.08-15.61-2.08h-26.63v98.9h17.25v-31.77Zm0-51.7h8.97c3.25,0,6.06,.41,8.42,1.22,2.36,.81,4.31,1.97,5.87,3.48,1.58,1.52,2.71,3.35,3.49,5.49,.75,2.15,1.14,4.52,1.14,7.17,0,2.86-.41,5.47-1.23,7.78-.8,2.33-1.99,4.31-3.52,5.99-1.55,1.66-3.49,2.95-5.75,3.82-2.26,.89-4.91,1.32-7.87,1.32h-9.52V49.39Z"/>
      <path class="cls-1" d="M107.37,125.22c2.6,3.03,5.98,5.35,10.16,6.96,4.17,1.62,9.18,2.43,15.01,2.43,5.21,0,9.9-.81,14.06-2.43,4.18-1.61,7.71-4.01,10.6-7.18,2.9-3.17,5.13-7.15,6.68-11.91,1.55-4.77,2.33-10.31,2.33-16.63V33.97h-17.11v61.78c0,3.88-.33,7.18-.98,9.91-.64,2.72-1.63,4.95-2.92,6.69-1.3,1.74-2.92,3-4.85,3.78-1.96,.78-4.35,1.18-7.17,1.18-3.03,0-5.53-.47-7.52-1.37-1.99-.92-3.65-2.26-4.96-4.05-1.36-1.78-2.27-3.96-2.82-6.54-.52-2.57-.78-5.53-.78-8.86V33.97h-17.12V99.57c0,5.4,.58,10.27,1.74,14.61,1.15,4.32,3.03,8.02,5.63,11.04Z"/>
      <path class="cls-1" d="M187.42,93.87h3.26c2.92,0,5.47,.77,7.61,2.31,2.17,1.54,3.84,3.82,5.06,6.85l12.8,29.84h20.11l-14.53-33.15c-1.86-4.22-3.71-7.46-5.57-9.71-1.85-2.25-3.9-3.63-6.12-4.12,2.88-.51,5.52-1.39,7.97-2.66,2.43-1.26,4.52-2.9,6.28-4.94,1.77-2.05,3.15-4.48,4.11-7.31,.98-2.83,1.45-6.06,1.45-9.69,0-5.04-.77-9.31-2.31-12.8-1.57-3.48-3.78-6.29-6.65-8.47-2.88-2.17-6.38-3.71-10.44-4.65-4.08-.91-8.63-1.39-13.63-1.39h-26.5v98.9h17.11v-39Zm0-44.39h7.51c5.67,0,9.91,1.05,12.73,3.17,2.84,2.13,4.24,5.59,4.24,10.43,0,2.33-.41,4.4-1.25,6.18-.83,1.79-2.02,3.28-3.54,4.5-1.53,1.21-3.38,2.11-5.53,2.73-2.16,.61-4.56,.91-7.21,.91h-6.95v-27.93Z"/>
      <path class="cls-1" d="M257.07,101.09h8.7c6.13,0,11.5-.89,16.13-2.65,4.63-1.77,8.52-4.24,11.61-7.42,3.1-3.17,5.46-6.94,7.04-11.31,1.56-4.37,2.34-9.13,2.34-14.28s-.79-9.51-2.39-13.43c-1.6-3.91-3.94-7.2-7.02-9.86-3.07-2.69-6.89-4.72-11.4-6.09-4.53-1.39-9.74-2.08-15.61-2.08h-26.64v98.9h17.25v-31.77Zm0-51.7h8.97c3.24,0,6.04,.41,8.42,1.22,2.36,.81,4.32,1.97,5.88,3.48,1.56,1.52,2.71,3.35,3.46,5.49,.78,2.15,1.17,4.52,1.17,7.17,0,2.86-.43,5.47-1.24,7.78-.81,2.33-1.98,4.31-3.55,5.99-1.56,1.66-3.48,2.95-5.73,3.82-2.27,.89-4.9,1.32-7.87,1.32h-9.52V49.39Z"/>
      <polygon class="cls-1" points="362.19 116.91 323.79 116.91 323.79 33.97 306.4 33.97 306.4 132.87 362.19 132.87 362.19 116.91"/>
      <polygon class="cls-1" points="366.02 132.87 419.36 132.87 419.36 117.54 382.97 117.54 382.97 90.77 417.66 90.77 417.66 75.81 382.97 75.81 382.97 51.84 419.36 51.84 419.36 36.5 366.02 36.5 366.02 132.87"/>
      <rect class="cls-1" x="34.22" y="148.65" width="385.08" height="1.41"/>
    </g>
  </g>
</svg>