<svg width="328" height="147" viewBox="0 0 328 147" fill="none" xmlns="http://www.w3.org/2000/svg">
<mask id="path-1-inside-1_126_224" fill="white">
<rect width="328" height="147" rx="4"/>
</mask>
<rect width="328" height="147" rx="4" fill="#791285" stroke="white" stroke-width="12" mask="url(#path-1-inside-1_126_224)"/>
<path d="M41.6478 21.2681C45.056 21.2681 48.2407 21.6033 51.2019 22.2736C54.1632 22.8881 56.7333 23.9494 58.9123 25.4576C61.0913 26.9658 62.7954 28.9767 64.0246 31.4904C65.3096 33.9482 65.9521 37.0205 65.9521 40.7072C65.9521 44.2264 65.3096 47.2986 64.0246 49.924C62.7954 52.4936 61.0913 54.6162 58.9123 56.292C56.7891 57.9678 54.2749 59.2246 51.3696 60.0625C48.4642 60.8445 45.3354 61.2356 41.9831 61.2356H33.6861V83.2721H21.2825V21.2681H41.6478ZM41.145 51.4322C49.5817 51.4322 53.8 47.8572 53.8 40.7072C53.8 37.0764 52.6825 34.5627 50.4477 33.1662C48.2687 31.7697 45.0281 31.0715 40.7259 31.0715H33.6861V51.4322H41.145Z" fill="white"/>
<path d="M94.2786 84.4452C90.5352 84.4452 87.1549 83.9145 84.1378 82.8532C81.1766 81.736 78.6344 80.0043 76.5113 77.6582C74.444 75.3121 72.8517 72.2957 71.7343 68.609C70.6727 64.9223 70.1419 60.5094 70.1419 55.3703V21.2681H82.5455V56.4596C82.5455 59.6994 82.7969 62.4365 83.2998 64.6709C83.8585 66.8494 84.6407 68.609 85.6464 69.9496C86.6521 71.2903 87.8813 72.2678 89.3339 72.8823C90.7866 73.4409 92.4348 73.7201 94.2786 73.7201C96.1224 73.7201 97.7706 73.4409 99.2233 72.8823C100.732 72.2678 102.017 71.2903 103.078 69.9496C104.14 68.609 104.95 66.8494 105.509 64.6709C106.068 62.4365 106.347 59.6994 106.347 56.4596V21.2681H118.248V55.3703C118.248 60.5094 117.717 64.9223 116.655 68.609C115.594 72.2957 114.029 75.3121 111.962 77.6582C109.895 80.0043 107.381 81.736 104.419 82.8532C101.458 83.9145 98.0779 84.4452 94.2786 84.4452Z" fill="white"/>
<path d="M147.501 59.8111H138.868V83.2721H126.465V21.2681H148.087C151.384 21.2681 154.429 21.5754 157.222 22.1898C160.072 22.8043 162.53 23.8377 164.597 25.29C166.721 26.7424 168.369 28.6695 169.542 31.0715C170.771 33.4734 171.386 36.4619 171.386 40.0369C171.386 44.785 170.296 48.6113 168.117 51.516C165.994 54.3648 163.145 56.4875 159.569 57.884L174.068 83.2721H160.239L147.501 59.8111ZM146.914 50.0078C150.937 50.0078 153.982 49.1978 156.049 47.5779C158.172 45.9021 159.234 43.3885 159.234 40.0369C159.234 36.6853 158.172 34.3672 156.049 33.0824C153.982 31.7418 150.937 31.0715 146.914 31.0715H138.868V50.0078H146.914Z" fill="white"/>
<path d="M197.252 21.2681C200.661 21.2681 203.845 21.6033 206.807 22.2736C209.768 22.8881 212.338 23.9494 214.517 25.4576C216.696 26.9658 218.4 28.9767 219.629 31.4904C220.914 33.9482 221.557 37.0205 221.557 40.7072C221.557 44.2264 220.914 47.2986 219.629 49.924C218.4 52.4936 216.696 54.6162 214.517 56.292C212.394 57.9678 209.88 59.2246 206.974 60.0625C204.069 60.8445 200.94 61.2356 197.588 61.2356H189.291V83.2721H176.887V21.2681H197.252ZM196.75 51.4322C205.186 51.4322 209.405 47.8572 209.405 40.7072C209.405 37.0764 208.287 34.5627 206.052 33.1662C203.873 31.7697 200.633 31.0715 196.331 31.0715H189.291V51.4322H196.75Z" fill="white"/>
<path d="M238.485 21.2681V72.8823H263.628V83.2721H226.082V21.2681H238.485Z" fill="white"/>
<path d="M305.796 21.2681V31.5742H280.15V45.9021H301.941V56.292H280.15V72.8823H306.718V83.2721H267.747V21.2681H305.796Z" fill="white"/>
<path d="M28.6557 115.852H24.8843V124.735H22.2272V103.797H28.7985C29.8652 103.797 30.8461 103.902 31.7413 104.112C32.6366 104.302 33.408 104.635 34.0556 105.111C34.7032 105.568 35.2079 106.178 35.5698 106.939C35.9317 107.682 36.1127 108.596 36.1127 109.682C36.1127 111.357 35.6746 112.671 34.7984 113.624C33.9413 114.576 32.7985 115.223 31.3699 115.566L36.7412 124.735H33.7413L28.6557 115.852ZM28.3985 113.709C30.0747 113.709 31.3413 113.385 32.1985 112.738C33.0556 112.071 33.4842 111.053 33.4842 109.682C33.4842 108.291 33.0556 107.32 32.1985 106.768C31.3413 106.216 30.0747 105.94 28.3985 105.94H24.8843V113.709H28.3985Z" fill="white"/>
<path d="M57.3056 103.797V106.025H47.8772V112.595H55.8199V114.852H47.8772V122.478H57.6199V124.735H45.2201V103.797H57.3056Z" fill="white"/>
<path d="M68.8166 118.337L66.788 124.735H64.1024L71.2165 103.797H74.1593L81.2735 124.735H78.4735L76.4736 118.337H68.8166ZM74.8165 113.024C74.4355 111.824 74.0736 110.653 73.7308 109.51C73.3879 108.349 73.0451 107.158 72.7022 105.94H72.5879C72.2641 107.196 71.9308 108.396 71.5879 109.539C71.2451 110.662 70.8832 111.824 70.5022 113.024L69.4737 116.223H75.8164L74.8165 113.024Z" fill="white"/>
<path d="M94.3425 103.797C97.6567 103.797 100.133 104.673 101.771 106.425C103.409 108.177 104.228 110.767 104.228 114.195C104.228 115.852 104.009 117.337 103.571 118.651C103.152 119.946 102.523 121.05 101.685 121.964C100.866 122.859 99.8471 123.545 98.6281 124.021C97.4281 124.497 96.0377 124.735 94.4567 124.735H89.0854V103.797H94.3425ZM94.1139 122.564C96.59 122.564 98.4376 121.831 99.6566 120.365C100.876 118.898 101.485 116.842 101.485 114.195C101.485 111.491 100.885 109.444 99.6852 108.053C98.5043 106.644 96.6472 105.94 94.1139 105.94H91.7425V122.564H94.1139Z" fill="white"/>
<path d="M116.214 103.797V124.735H113.557V103.797H116.214Z" fill="white"/>
<path d="M129.527 103.797L137.156 116.994L139.384 121.307H139.527C139.451 120.222 139.375 119.117 139.299 117.994C139.222 116.87 139.184 115.766 139.184 114.68V103.797H141.699V124.735H138.984L131.356 111.51L129.099 107.196H128.984C129.042 108.282 129.108 109.367 129.184 110.453C129.261 111.538 129.299 112.633 129.299 113.738V124.735H126.785V103.797H129.527Z" fill="white"/>
<path d="M160.489 125.106C159.118 125.106 157.851 124.859 156.689 124.364C155.527 123.869 154.527 123.164 153.689 122.25C152.87 121.317 152.223 120.184 151.746 118.851C151.289 117.499 151.061 115.975 151.061 114.28C151.061 112.586 151.299 111.072 151.775 109.739C152.251 108.387 152.918 107.244 153.775 106.311C154.632 105.359 155.642 104.635 156.803 104.14C157.984 103.645 159.27 103.397 160.66 103.397C161.384 103.397 162.051 103.474 162.66 103.626C163.27 103.778 163.822 103.978 164.318 104.226C164.813 104.454 165.251 104.73 165.632 105.054C166.032 105.359 166.384 105.673 166.689 105.997L165.26 107.711C164.727 107.158 164.108 106.692 163.403 106.311C162.699 105.911 161.803 105.711 160.718 105.711C159.67 105.711 158.718 105.911 157.861 106.311C157.003 106.692 156.27 107.254 155.661 107.996C155.07 108.72 154.603 109.605 154.261 110.653C153.937 111.7 153.775 112.881 153.775 114.195C153.775 115.509 153.927 116.699 154.232 117.765C154.537 118.832 154.984 119.736 155.575 120.479C156.165 121.222 156.889 121.793 157.746 122.193C158.622 122.593 159.622 122.793 160.746 122.793C161.508 122.793 162.222 122.688 162.889 122.478C163.575 122.25 164.127 121.945 164.546 121.564V116.08H160.118V113.881H166.975V122.678C166.308 123.383 165.413 123.964 164.289 124.421C163.184 124.878 161.918 125.106 160.489 125.106Z" fill="white"/>
<path d="M184.73 125.106C183.435 125.106 182.225 124.859 181.102 124.364C179.997 123.869 179.035 123.164 178.216 122.25C177.416 121.317 176.778 120.184 176.302 118.851C175.845 117.499 175.616 115.975 175.616 114.28C175.616 112.586 175.845 111.072 176.302 109.739C176.778 108.387 177.426 107.244 178.245 106.311C179.083 105.359 180.064 104.635 181.187 104.14C182.33 103.645 183.568 103.397 184.902 103.397C185.53 103.397 186.13 103.474 186.702 103.626C187.273 103.759 187.797 103.95 188.273 104.197C188.768 104.445 189.206 104.721 189.587 105.026C189.987 105.33 190.34 105.654 190.644 105.997L189.216 107.711C188.663 107.12 188.035 106.644 187.33 106.282C186.644 105.902 185.844 105.711 184.93 105.711C183.94 105.711 183.035 105.911 182.216 106.311C181.416 106.692 180.721 107.254 180.13 107.996C179.559 108.72 179.111 109.605 178.787 110.653C178.483 111.7 178.33 112.881 178.33 114.195C178.33 115.509 178.483 116.699 178.787 117.765C179.092 118.832 179.521 119.736 180.073 120.479C180.644 121.222 181.33 121.793 182.13 122.193C182.949 122.593 183.854 122.793 184.844 122.793C185.873 122.793 186.768 122.583 187.53 122.164C188.311 121.745 189.035 121.174 189.701 120.45L191.159 122.107C190.301 123.078 189.359 123.821 188.33 124.335C187.302 124.849 186.102 125.106 184.73 125.106Z" fill="white"/>
<path d="M211.978 103.797V106.025H202.55V112.595H210.492V114.852H202.55V122.478H212.292V124.735H199.893V103.797H211.978Z" fill="white"/>
<path d="M224.289 103.797L231.917 116.994L234.146 121.307H234.289C234.213 120.222 234.136 119.117 234.06 117.994C233.984 116.87 233.946 115.766 233.946 114.68V103.797H236.46V124.735H233.746L226.118 111.51L223.86 107.196H223.746C223.803 108.282 223.87 109.367 223.946 110.453C224.022 111.538 224.06 112.633 224.06 113.738V124.735H221.546V103.797H224.289Z" fill="white"/>
<path d="M245.051 106.025V103.797H260.394V106.025H254.051V124.735H251.394V106.025H245.051Z" fill="white"/>
<path d="M281.068 103.797V106.025H271.64V112.595H279.583V114.852H271.64V122.478H281.383V124.735H268.983V103.797H281.068Z" fill="white"/>
<path d="M297.065 115.852H293.294V124.735H290.637V103.797H297.208C298.274 103.797 299.255 103.902 300.151 104.112C301.046 104.302 301.817 104.635 302.465 105.111C303.112 105.568 303.617 106.178 303.979 106.939C304.341 107.682 304.522 108.596 304.522 109.682C304.522 111.357 304.084 112.671 303.208 113.624C302.351 114.576 301.208 115.223 299.779 115.566L305.151 124.735H302.151L297.065 115.852ZM296.808 113.709C298.484 113.709 299.751 113.385 300.608 112.738C301.465 112.071 301.893 111.053 301.893 109.682C301.893 108.291 301.465 107.32 300.608 106.768C299.751 106.216 298.484 105.94 296.808 105.94H293.294V113.709H296.808Z" fill="white"/>
<rect x="21.2825" y="93.2042" width="285.435" height="0.751145" fill="white"/>
</svg>
