<svg width="12" height="13" viewBox="0 0 12 13" fill="none" xmlns="http://www.w3.org/2000/svg">
<path d="M2.21875 6.96875C2.80208 7.55208 3.51042 7.84375 4.34375 7.84375C5.17708 7.84375 5.88542 7.55208 6.46875 6.96875C7.05208 6.38542 7.34375 5.67708 7.34375 4.84375C7.34375 4.01042 7.05208 3.30208 6.46875 2.71875C5.88542 2.13542 5.17708 1.84375 4.34375 1.84375C3.51042 1.84375 2.80208 2.13542 2.21875 2.71875C1.63542 3.30208 1.34375 4.01042 1.34375 4.84375C1.34375 5.67708 1.63542 6.38542 2.21875 6.96875ZM8.34375 7.84375L11.6562 11.1562L10.6562 12.1562L7.34375 8.84375V8.3125L7.15625 8.125C6.36458 8.8125 5.42708 9.15625 4.34375 9.15625C3.13542 9.15625 2.10417 8.73958 1.25 7.90625C0.416667 7.07292 0 6.05208 0 4.84375C0 3.63542 0.416667 2.61458 1.25 1.78125C2.10417 0.927083 3.13542 0.5 4.34375 0.5C5.55208 0.5 6.57292 0.927083 7.40625 1.78125C8.23958 2.61458 8.65625 3.63542 8.65625 4.84375C8.65625 5.28125 8.55208 5.78125 8.34375 6.34375C8.13542 6.88542 7.89583 7.32292 7.625 7.65625L7.8125 7.84375H8.34375Z" fill="#AAAAAA"/>
</svg>
